<svg xmlns="http://www.w3.org/2000/svg" width="12.997" height="13" viewBox="0 0 12.997 13">
  <path id="Path_1374" data-name="Path 1374" d="M11.372-14.875a1.561,1.561,0,0,1,1.142.482A1.561,1.561,0,0,1,13-13.25V-5.94A1.561,1.561,0,0,1,12.514-4.8a1.561,1.561,0,0,1-1.142.482H7.717L4.544-1.929a.288.288,0,0,1-.317.013.286.286,0,0,1-.165-.267V-4.315H1.625A1.561,1.561,0,0,1,.482-4.8,1.561,1.561,0,0,1,0-5.94V-13.25a1.561,1.561,0,0,1,.482-1.142,1.561,1.561,0,0,1,1.142-.482Z" transform="translate(0 14.875)" fill="#333"/>
</svg>
