<svg xmlns="http://www.w3.org/2000/svg" width="11" height="16" viewBox="0 0 11 16">
  <path id="Path_1827" data-name="Path 1827" d="M3,.2a1,1,0,0,0,.168.553l.534.8A1.117,1.117,0,0,0,4.536,2H6.464A1.117,1.117,0,0,0,7.3,1.554l.534-.8A1.174,1.174,0,0,0,8,.2V-1H3ZM0-8.5A5.469,5.469,0,0,0,1.361-4.882,8.98,8.98,0,0,1,2.993-2.024L3-2H8l0-.024A8.98,8.98,0,0,1,9.639-4.882,5.469,5.469,0,0,0,11-8.5,5.5,5.5,0,0,0,5.483-14,5.477,5.477,0,0,0,0-8.5ZM5.5-11A2.5,2.5,0,0,0,3-8.5a.5.5,0,0,1-.5.5A.5.5,0,0,1,2-8.5,3.5,3.5,0,0,1,5.5-12a.5.5,0,0,1,.5.5A.5.5,0,0,1,5.5-11Z" transform="translate(0 14)" fill="#333"/>
</svg>
