<svg xmlns="http://www.w3.org/2000/svg" width="15.999" height="15.999" viewBox="0 0 15.999 15.999">
  <path id="Path_1825" data-name="Path 1825" d="M15.559-9.559a1.5,1.5,0,0,0,0-2.122l-1.878-1.878a1.5,1.5,0,0,0-2.122,0l-1.441,1.441a.375.375,0,0,0,0,.531l3.469,3.469a.375.375,0,0,0,.531,0ZM8.881-10.881.675-2.675l-.662,3.8a.751.751,0,0,0,.869.869l3.8-.666,8.206-8.206a.375.375,0,0,0,0-.531L9.416-10.881A.379.379,0,0,0,8.881-10.881Zm-5,7.5a.436.436,0,0,1,0-.619L8.691-8.809a.436.436,0,0,1,.619,0,.436.436,0,0,1,0,.619L4.5-3.378A.436.436,0,0,1,3.878-3.378ZM2.75-.75h1.5V.384L2.234.737,1.263-.234,1.616-2.25H2.75Z" transform="translate(-0.001 13.998)" fill="#333"/>
</svg>
