<svg xmlns="http://www.w3.org/2000/svg" width="13.929" height="13.929" viewBox="0 0 13.929 13.929">
  <path id="Path_1762" data-name="Path 1762" d="M9.643-5.893a3.755,3.755,0,0,1-3.75,3.75,3.755,3.755,0,0,1-3.75-3.75,3.755,3.755,0,0,1,3.75-3.75A3.755,3.755,0,0,1,9.643-5.893Zm4.286,6.964a1.078,1.078,0,0,0-.31-.753L10.748-2.553a5.879,5.879,0,0,0,1.038-3.34,5.891,5.891,0,0,0-5.893-5.893A5.891,5.891,0,0,0,0-5.893,5.891,5.891,0,0,0,5.893,0a5.879,5.879,0,0,0,3.34-1.038L12.1,1.825a1.051,1.051,0,0,0,.753.318A1.079,1.079,0,0,0,13.929,1.071Z" transform="translate(0 11.786)" fill="#333"/>
</svg>
