<svg xmlns="http://www.w3.org/2000/svg" width="21.533" height="20.61" viewBox="0 0 21.533 20.61">
  <path id="Path_75" data-name="Path 75" d="M20.991-5.347,15.111-6.2l-2.628-5.329a1.289,1.289,0,0,0-2.31,0L7.544-6.2l-5.88.857a1.289,1.289,0,0,0-.712,2.2L5.205,1,4.2,6.852A1.287,1.287,0,0,0,6.067,8.209l5.261-2.765,5.261,2.765a1.288,1.288,0,0,0,1.868-1.356L17.449,1,21.7-3.15A1.289,1.289,0,0,0,20.991-5.347ZM15.376.32l.954,5.57-5-2.628-5,2.628L7.278.32,3.229-3.624l5.595-.813,2.5-5.071,2.5,5.071,5.595.813Z" transform="translate(-0.561 12.25)" fill="#333"/>
</svg>
